<svg xmlns="http://www.w3.org/2000/svg" width="42" height="24" fill="none" viewBox="0 0 42 24"><path fill="url(#paint0_linear_1_1104)" d="M26.773 13.159L28.6455 15.4991L21.0001 22.3401L13.3547 15.4991L15.2272 13.159L2.61133 1.45752L20.0653 12.3186L18.1214 15.0191L21.0001 16.7896L23.8788 15.0191L21.9349 12.3186L39.3889 1.45752L26.773 13.159Z"/><path fill="url(#paint1_linear_1_1104)" d="M20.9994 2.08584e-05L20.9994 4.40912L22.1028 2.79883L27.2887 6.17276L24.6774 9.31665L30.1208 5.86604L20.9994 2.08584e-05Z"/><path fill="url(#paint2_linear_1_1104)" d="M21.0006 2.08584e-05L21.0006 4.40912L19.8972 2.79883L14.7113 6.17276L17.3226 9.31665L11.8792 5.86604L21.0006 2.08584e-05Z"/><path fill="url(#paint3_linear_1_1104)" d="M42 12.8055L33.6515 7.7832L31.9965 9.5084L35.0245 13.4108L21 24.0001L42 12.8055Z"/><path fill="url(#paint4_linear_1_1104)" d="M0 12.8055L8.3485 7.7832L10.0035 9.5084L6.97547 13.4108L21 24.0001L0 12.8055Z"/><path fill="url(#paint5_linear_1_1104)" d="M20.9999 15.4122L19.676 14.6181L20.5755 13.3924L20.9999 12.8054L21.4242 13.3924L22.3238 14.6181L20.9999 15.4122Z"/><defs><linearGradient id="paint0_linear_1_1104" x1="21" x2="13.483" y1="-2.3" y2="21.725" gradientUnits="userSpaceOnUse"><stop stopColor="#01FFC2"/><stop offset=".995" stopColor="#5AB0FF"/></linearGradient><linearGradient id="paint1_linear_1_1104" x1="22.096" x2="29.698" y1="8.642" y2="7.26" gradientUnits="userSpaceOnUse"><stop stopColor="#01FFC2"/><stop offset=".995" stopColor="#5AB0FF"/></linearGradient><linearGradient id="paint2_linear_1_1104" x1="19.904" x2="12.303" y1="8.642" y2="7.26" gradientUnits="userSpaceOnUse"><stop stopColor="#01FFC2"/><stop offset=".995" stopColor="#5AB0FF"/></linearGradient><linearGradient id="paint3_linear_1_1104" x1="23.524" x2="40.615" y1="8.957" y2="13.068" gradientUnits="userSpaceOnUse"><stop stopColor="#01FFC2"/><stop offset=".995" stopColor="#5AB0FF"/></linearGradient><linearGradient id="paint4_linear_1_1104" x1="18.476" x2="1.385" y1="8.957" y2="13.068" gradientUnits="userSpaceOnUse"><stop stopColor="#01FFC2"/><stop offset=".995" stopColor="#5AB0FF"/></linearGradient><linearGradient id="paint5_linear_1_1104" x1="21" x2="9.167" y1="-.075" y2="13.474" gradientUnits="userSpaceOnUse"><stop stopColor="#01FFC2"/><stop offset=".995" stopColor="#5AB0FF"/></linearGradient></defs></svg>